<mxfile host="app.diagrams.net" modified="2022-10-26T08:08:40.240Z" agent="5.0 (Macintosh; Intel Mac OS X 10_15_7) AppleWebKit/537.36 (KHTML, like Gecko) Chrome/106.0.0.0 Safari/537.36" etag="zHOXJl0ZueG4sG7gLUB4" version="20.5.1" type="github">
  <diagram id="9lWx7QE_99ikzCItOOA4" name="第 1 页">
    <mxGraphModel dx="1649" dy="1134" grid="1" gridSize="10" guides="1" tooltips="1" connect="1" arrows="1" fold="1" page="1" pageScale="1" pageWidth="850" pageHeight="1100" math="0" shadow="0">
      <root>
        <mxCell id="0" />
        <mxCell id="1" parent="0" />
        <mxCell id="RwGBR16TktLq6eAA979h-1" value="风控引擎问题" style="rounded=1;whiteSpace=wrap;html=1;" vertex="1" parent="1">
          <mxGeometry x="220" y="290" width="120" height="60" as="geometry" />
        </mxCell>
        <mxCell id="RwGBR16TktLq6eAA979h-2" value="超适应用药" style="rounded=1;whiteSpace=wrap;html=1;" vertex="1" parent="1">
          <mxGeometry x="425" y="220" width="120" height="60" as="geometry" />
        </mxCell>
        <mxCell id="RwGBR16TktLq6eAA979h-3" value="非意外治疗" style="rounded=1;whiteSpace=wrap;html=1;" vertex="1" parent="1">
          <mxGeometry x="425" y="290" width="120" height="60" as="geometry" />
        </mxCell>
        <mxCell id="RwGBR16TktLq6eAA979h-4" value="搭车治疗" style="rounded=1;whiteSpace=wrap;html=1;" vertex="1" parent="1">
          <mxGeometry x="425" y="360" width="120" height="60" as="geometry" />
        </mxCell>
        <mxCell id="RwGBR16TktLq6eAA979h-5" value="" style="edgeStyle=elbowEdgeStyle;elbow=horizontal;endArrow=classic;html=1;rounded=0;entryX=0;entryY=0.5;entryDx=0;entryDy=0;exitX=1;exitY=0.5;exitDx=0;exitDy=0;" edge="1" parent="1" source="RwGBR16TktLq6eAA979h-1" target="RwGBR16TktLq6eAA979h-2">
          <mxGeometry width="50" height="50" relative="1" as="geometry">
            <mxPoint x="400" y="600" as="sourcePoint" />
            <mxPoint x="450" y="550" as="targetPoint" />
          </mxGeometry>
        </mxCell>
        <mxCell id="RwGBR16TktLq6eAA979h-6" value="" style="edgeStyle=elbowEdgeStyle;elbow=horizontal;endArrow=classic;html=1;rounded=0;entryX=0;entryY=0.5;entryDx=0;entryDy=0;exitX=1;exitY=0.5;exitDx=0;exitDy=0;" edge="1" parent="1" source="RwGBR16TktLq6eAA979h-1" target="RwGBR16TktLq6eAA979h-4">
          <mxGeometry width="50" height="50" relative="1" as="geometry">
            <mxPoint x="350" y="330" as="sourcePoint" />
            <mxPoint x="435" y="260" as="targetPoint" />
          </mxGeometry>
        </mxCell>
        <mxCell id="RwGBR16TktLq6eAA979h-7" value="" style="endArrow=classic;html=1;rounded=0;entryX=0;entryY=0.5;entryDx=0;entryDy=0;exitX=1;exitY=0.5;exitDx=0;exitDy=0;" edge="1" parent="1" source="RwGBR16TktLq6eAA979h-1" target="RwGBR16TktLq6eAA979h-3">
          <mxGeometry width="50" height="50" relative="1" as="geometry">
            <mxPoint x="400" y="600" as="sourcePoint" />
            <mxPoint x="450" y="550" as="targetPoint" />
          </mxGeometry>
        </mxCell>
        <mxCell id="RwGBR16TktLq6eAA979h-8" value="迁移到对码服务" style="rounded=1;whiteSpace=wrap;html=1;" vertex="1" parent="1">
          <mxGeometry x="680" y="290" width="120" height="60" as="geometry" />
        </mxCell>
        <mxCell id="RwGBR16TktLq6eAA979h-9" value="" style="endArrow=classic;startArrow=classic;html=1;rounded=0;entryX=0;entryY=0.5;entryDx=0;entryDy=0;exitX=1;exitY=0.5;exitDx=0;exitDy=0;" edge="1" parent="1" source="RwGBR16TktLq6eAA979h-3" target="RwGBR16TktLq6eAA979h-8">
          <mxGeometry width="50" height="50" relative="1" as="geometry">
            <mxPoint x="400" y="600" as="sourcePoint" />
            <mxPoint x="450" y="550" as="targetPoint" />
          </mxGeometry>
        </mxCell>
        <mxCell id="RwGBR16TktLq6eAA979h-10" value="简易核减" style="ellipse;whiteSpace=wrap;html=1;" vertex="1" parent="1">
          <mxGeometry x="680" y="120" width="120" height="80" as="geometry" />
        </mxCell>
        <mxCell id="RwGBR16TktLq6eAA979h-11" value="" style="endArrow=classic;html=1;rounded=0;exitX=0.5;exitY=1;exitDx=0;exitDy=0;entryX=0.5;entryY=0;entryDx=0;entryDy=0;" edge="1" parent="1" source="RwGBR16TktLq6eAA979h-10" target="RwGBR16TktLq6eAA979h-8">
          <mxGeometry width="50" height="50" relative="1" as="geometry">
            <mxPoint x="400" y="600" as="sourcePoint" />
            <mxPoint x="450" y="550" as="targetPoint" />
          </mxGeometry>
        </mxCell>
        <mxCell id="RwGBR16TktLq6eAA979h-12" value="其他已有场景" style="rounded=1;whiteSpace=wrap;html=1;" vertex="1" parent="1">
          <mxGeometry x="220" y="520" width="120" height="60" as="geometry" />
        </mxCell>
        <mxCell id="RwGBR16TktLq6eAA979h-13" value="尚未使用场景" style="rounded=1;whiteSpace=wrap;html=1;" vertex="1" parent="1">
          <mxGeometry x="220" y="730" width="120" height="60" as="geometry" />
        </mxCell>
        <mxCell id="RwGBR16TktLq6eAA979h-14" value="替换药" style="rounded=1;whiteSpace=wrap;html=1;" vertex="1" parent="1">
          <mxGeometry x="425" y="670" width="120" height="60" as="geometry" />
        </mxCell>
        <mxCell id="RwGBR16TktLq6eAA979h-15" value="" style="edgeStyle=elbowEdgeStyle;elbow=horizontal;endArrow=classic;html=1;rounded=0;exitX=1;exitY=0.5;exitDx=0;exitDy=0;entryX=0;entryY=0.5;entryDx=0;entryDy=0;" edge="1" parent="1" source="RwGBR16TktLq6eAA979h-13" target="RwGBR16TktLq6eAA979h-14">
          <mxGeometry width="50" height="50" relative="1" as="geometry">
            <mxPoint x="400" y="600" as="sourcePoint" />
            <mxPoint x="450" y="550" as="targetPoint" />
          </mxGeometry>
        </mxCell>
        <mxCell id="RwGBR16TktLq6eAA979h-16" value="挂床" style="rounded=1;whiteSpace=wrap;html=1;" vertex="1" parent="1">
          <mxGeometry x="425" y="790" width="120" height="60" as="geometry" />
        </mxCell>
        <mxCell id="RwGBR16TktLq6eAA979h-17" value="" style="edgeStyle=elbowEdgeStyle;elbow=horizontal;endArrow=classic;html=1;rounded=0;entryX=0;entryY=0.5;entryDx=0;entryDy=0;" edge="1" parent="1" source="RwGBR16TktLq6eAA979h-13" target="RwGBR16TktLq6eAA979h-16">
          <mxGeometry width="50" height="50" relative="1" as="geometry">
            <mxPoint x="350" y="770" as="sourcePoint" />
            <mxPoint x="435" y="710" as="targetPoint" />
          </mxGeometry>
        </mxCell>
        <mxCell id="RwGBR16TktLq6eAA979h-18" value="限制用药" style="rounded=1;whiteSpace=wrap;html=1;" vertex="1" parent="1">
          <mxGeometry x="425" y="460" width="120" height="60" as="geometry" />
        </mxCell>
        <mxCell id="RwGBR16TktLq6eAA979h-19" value="限价" style="rounded=1;whiteSpace=wrap;html=1;" vertex="1" parent="1">
          <mxGeometry x="425" y="580" width="120" height="60" as="geometry" />
        </mxCell>
        <mxCell id="RwGBR16TktLq6eAA979h-20" value="" style="edgeStyle=elbowEdgeStyle;elbow=horizontal;endArrow=classic;html=1;rounded=0;exitX=1;exitY=0.5;exitDx=0;exitDy=0;entryX=0;entryY=0.5;entryDx=0;entryDy=0;" edge="1" parent="1" source="RwGBR16TktLq6eAA979h-12" target="RwGBR16TktLq6eAA979h-18">
          <mxGeometry width="50" height="50" relative="1" as="geometry">
            <mxPoint x="400" y="600" as="sourcePoint" />
            <mxPoint x="450" y="550" as="targetPoint" />
          </mxGeometry>
        </mxCell>
        <mxCell id="RwGBR16TktLq6eAA979h-21" value="" style="edgeStyle=elbowEdgeStyle;elbow=horizontal;endArrow=classic;html=1;rounded=0;exitX=1;exitY=0.5;exitDx=0;exitDy=0;entryX=0;entryY=0.5;entryDx=0;entryDy=0;" edge="1" parent="1" source="RwGBR16TktLq6eAA979h-12" target="RwGBR16TktLq6eAA979h-19">
          <mxGeometry width="50" height="50" relative="1" as="geometry">
            <mxPoint x="350" y="560" as="sourcePoint" />
            <mxPoint x="435" y="500" as="targetPoint" />
          </mxGeometry>
        </mxCell>
        <mxCell id="RwGBR16TktLq6eAA979h-23" value="&lt;ul&gt;&lt;li&gt;&lt;font style=&quot;background-color: rgb(179, 179, 179);&quot; color=&quot;#00ff80&quot;&gt;更简单的方法规则&lt;/font&gt;&lt;/li&gt;&lt;li&gt;&lt;font color=&quot;#9933ff&quot;&gt;河北的方法/规则收集&lt;/font&gt;&lt;/li&gt;&lt;li&gt;&lt;font color=&quot;#9933ff&quot;&gt;当前的复杂规则&lt;/font&gt;&lt;/li&gt;&lt;/ul&gt;" style="text;html=1;strokeColor=none;fillColor=none;align=left;verticalAlign=middle;whiteSpace=wrap;rounded=0;" vertex="1" parent="1">
          <mxGeometry x="600" y="575" width="180" height="70" as="geometry" />
        </mxCell>
        <mxCell id="RwGBR16TktLq6eAA979h-24" value="" style="endArrow=classic;html=1;rounded=0;exitX=1;exitY=0.5;exitDx=0;exitDy=0;entryX=0;entryY=0.5;entryDx=0;entryDy=0;" edge="1" parent="1" source="RwGBR16TktLq6eAA979h-19" target="RwGBR16TktLq6eAA979h-23">
          <mxGeometry width="50" height="50" relative="1" as="geometry">
            <mxPoint x="400" y="530" as="sourcePoint" />
            <mxPoint x="450" y="480" as="targetPoint" />
          </mxGeometry>
        </mxCell>
        <mxCell id="RwGBR16TktLq6eAA979h-25" value="&lt;ul&gt;&lt;li&gt;&lt;font color=&quot;#9933ff&quot;&gt;业务上明确是否能归结为非意外&lt;/font&gt;&lt;/li&gt;&lt;/ul&gt;" style="text;html=1;strokeColor=none;fillColor=none;align=left;verticalAlign=middle;whiteSpace=wrap;rounded=0;" vertex="1" parent="1">
          <mxGeometry x="600" y="455" width="180" height="70" as="geometry" />
        </mxCell>
        <mxCell id="RwGBR16TktLq6eAA979h-26" value="" style="endArrow=classic;html=1;rounded=0;exitX=1;exitY=0.5;exitDx=0;exitDy=0;entryX=0;entryY=0.5;entryDx=0;entryDy=0;" edge="1" parent="1" target="RwGBR16TktLq6eAA979h-25">
          <mxGeometry width="50" height="50" relative="1" as="geometry">
            <mxPoint x="545" y="490" as="sourcePoint" />
            <mxPoint x="450" y="360" as="targetPoint" />
          </mxGeometry>
        </mxCell>
        <mxCell id="RwGBR16TktLq6eAA979h-27" value="" style="edgeStyle=elbowEdgeStyle;elbow=horizontal;endArrow=classic;html=1;rounded=0;fontColor=#9933FF;exitX=1;exitY=0.5;exitDx=0;exitDy=0;entryX=0;entryY=0.5;entryDx=0;entryDy=0;fillColor=#e1d5e7;strokeColor=#9673a6;startArrow=classic;startFill=1;" edge="1" parent="1" source="RwGBR16TktLq6eAA979h-2" target="RwGBR16TktLq6eAA979h-8">
          <mxGeometry width="50" height="50" relative="1" as="geometry">
            <mxPoint x="400" y="470" as="sourcePoint" />
            <mxPoint x="450" y="420" as="targetPoint" />
          </mxGeometry>
        </mxCell>
        <mxCell id="RwGBR16TktLq6eAA979h-28" value="&lt;font color=&quot;#ff3333&quot;&gt;在哪里实现解析判断工作&lt;/font&gt;" style="edgeLabel;html=1;align=center;verticalAlign=middle;resizable=0;points=[];fontColor=#9933FF;" vertex="1" connectable="0" parent="RwGBR16TktLq6eAA979h-27">
          <mxGeometry x="-0.161" y="1" relative="1" as="geometry">
            <mxPoint as="offset" />
          </mxGeometry>
        </mxCell>
        <mxCell id="RwGBR16TktLq6eAA979h-29" value="&lt;ul&gt;&lt;li&gt;&lt;font color=&quot;#ff3333&quot;&gt;具体意义是什么？是否要迁移使用&lt;/font&gt;&lt;/li&gt;&lt;/ul&gt;" style="text;html=1;strokeColor=none;fillColor=none;align=left;verticalAlign=middle;whiteSpace=wrap;rounded=0;" vertex="1" parent="1">
          <mxGeometry x="600" y="355" width="180" height="70" as="geometry" />
        </mxCell>
        <mxCell id="RwGBR16TktLq6eAA979h-30" value="" style="endArrow=classic;html=1;rounded=0;exitX=1;exitY=0.5;exitDx=0;exitDy=0;entryX=0;entryY=0.5;entryDx=0;entryDy=0;" edge="1" parent="1" target="RwGBR16TktLq6eAA979h-29">
          <mxGeometry width="50" height="50" relative="1" as="geometry">
            <mxPoint x="545" y="390" as="sourcePoint" />
            <mxPoint x="450" y="260" as="targetPoint" />
          </mxGeometry>
        </mxCell>
        <mxCell id="RwGBR16TktLq6eAA979h-31" value="" style="endArrow=classic;html=1;rounded=0;fontColor=#FF3333;entryX=1;entryY=0.5;entryDx=0;entryDy=0;" edge="1" parent="1" target="RwGBR16TktLq6eAA979h-8">
          <mxGeometry width="50" height="50" relative="1" as="geometry">
            <mxPoint x="910" y="320" as="sourcePoint" />
            <mxPoint x="450" y="410" as="targetPoint" />
          </mxGeometry>
        </mxCell>
        <mxCell id="RwGBR16TktLq6eAA979h-32" value="反馈数据过滤" style="rounded=1;whiteSpace=wrap;html=1;" vertex="1" parent="1">
          <mxGeometry x="910" y="290" width="120" height="60" as="geometry" />
        </mxCell>
        <mxCell id="RwGBR16TktLq6eAA979h-33" value="&lt;ul&gt;&lt;li&gt;&lt;font color=&quot;#ff3333&quot;&gt;初步分析&lt;/font&gt;&lt;/li&gt;&lt;li&gt;&lt;font style=&quot;background-color: rgb(255, 255, 255);&quot; color=&quot;#5db4d9&quot;&gt;业务人员/专家归类&lt;/font&gt;&lt;/li&gt;&lt;li&gt;&lt;font color=&quot;#ff3333&quot;&gt;充实非意外治疗&lt;/font&gt;&lt;/li&gt;&lt;/ul&gt;" style="text;html=1;strokeColor=none;fillColor=none;align=left;verticalAlign=middle;whiteSpace=wrap;rounded=0;" vertex="1" parent="1">
          <mxGeometry x="1110" y="285" width="180" height="70" as="geometry" />
        </mxCell>
        <mxCell id="RwGBR16TktLq6eAA979h-34" value="" style="endArrow=classic;html=1;rounded=0;fontColor=#FF3333;entryX=0;entryY=0.5;entryDx=0;entryDy=0;exitX=1;exitY=0.5;exitDx=0;exitDy=0;" edge="1" parent="1" source="RwGBR16TktLq6eAA979h-32" target="RwGBR16TktLq6eAA979h-33">
          <mxGeometry width="50" height="50" relative="1" as="geometry">
            <mxPoint x="920" y="330" as="sourcePoint" />
            <mxPoint x="810" y="330" as="targetPoint" />
          </mxGeometry>
        </mxCell>
      </root>
    </mxGraphModel>
  </diagram>
</mxfile>
